<svg width="760" height="340" viewBox="0 0 760 340" xmlns="http://www.w3.org/2000/svg" font-family="'Inter', 'Helvetica Neue', 'Segoe UI', Arial, sans-serif">
  <!-- Background matches the manual page background (styles.css page-bg) -->
  <rect x="0" y="0" width="760" height="340" fill="#ffffff"/>

  <!-- ===== 12V WIRE (accent) ===== -->
  <line x1="120" y1="120" x2="680" y2="120" stroke="#d4511a" stroke-width="9" stroke-linecap="round"/>
  <!-- splice: soldered core (dashed) under a heat-shrink sleeve -->
  <line x1="272" y1="120" x2="328" y2="120" stroke="#6a6a6a" stroke-width="4" stroke-linecap="round" stroke-dasharray="4 4"/>
  <rect x="266" y="109" width="68" height="22" rx="7" fill="#f3d9cb" stroke="#d4511a" stroke-width="1.5"/>

  <!-- ===== GND WIRE (ink) ===== -->
  <line x1="120" y1="210" x2="680" y2="210" stroke="#1f1f1f" stroke-width="9" stroke-linecap="round"/>
  <line x1="442" y1="210" x2="498" y2="210" stroke="#6a6a6a" stroke-width="4" stroke-linecap="round" stroke-dasharray="4 4"/>
  <rect x="436" y="199" width="68" height="22" rx="7" fill="#e2e0db" stroke="#1f1f1f" stroke-width="1.5"/>

  <!-- ===== wire labels ===== -->
  <text x="104" y="125" font-size="15" font-weight="600" fill="#d4511a" text-anchor="end">12 V</text>
  <text x="104" y="215" font-size="15" font-weight="600" fill="#1f1f1f" text-anchor="end">GND</text>

  <!-- ===== stagger dimension: 20 mm between the two splices ===== -->
  <line x1="300" y1="138" x2="300" y2="184" stroke="#b8b8b8" stroke-width="1" stroke-dasharray="3 3"/>
  <line x1="470" y1="138" x2="470" y2="184" stroke="#b8b8b8" stroke-width="1" stroke-dasharray="3 3"/>
  <line x1="300" y1="165" x2="470" y2="165" stroke="#6a6a6a" stroke-width="1.5"/>
  <polygon points="300,165 310,160.5 310,169.5" fill="#6a6a6a"/>
  <polygon points="470,165 460,160.5 460,169.5" fill="#6a6a6a"/>
  <rect x="351" y="154" width="68" height="22" rx="6" fill="#ffffff"/>
  <text x="385" y="170" font-size="13" fill="#d4511a" text-anchor="middle" font-family="'JetBrains Mono', 'SF Mono', Menlo, Consolas, monospace">20 mm</text>
</svg>
